<svg width="49" height="49" viewBox="0 0 49 49" fill="none" xmlns="http://www.w3.org/2000/svg">
<g filter="url(#filter0_f_91303_2872)">
<path d="M40.0127 37.1331C40.5133 36.5196 40.0621 35.6398 39.2704 35.6268C29.164 35.4604 20.7118 35.6472 10.2582 36.2832C9.46742 36.3314 9.05522 37.2311 9.58318 37.8217C13.2464 41.9201 18.5738 44.5 24.5039 44.5C30.7595 44.5 36.3446 41.6291 40.0127 37.1331Z" stroke="#F2F2F3" stroke-linecap="round" stroke-linejoin="round"/>
<path d="M7.14272 14.5579C6.75238 15.2378 7.32746 16.0294 8.10585 15.936C19.6726 14.548 28.1979 14.1341 40.2882 14.8703C41.0749 14.9182 41.6044 14.0873 41.1676 13.4313C37.5829 8.04757 31.4578 4.5 24.5039 4.5C17.0757 4.5 10.5932 8.54797 7.14272 14.5579Z" stroke="#F2F2F3" stroke-linecap="round" stroke-linejoin="round"/>
</g>
<g filter="url(#filter1_f_91303_2872)">
<path d="M40.0127 37.1331C40.5133 36.5196 40.0621 35.6398 39.2704 35.6268C29.164 35.4604 20.7118 35.6472 10.2582 36.2832C9.46742 36.3314 9.05522 37.2311 9.58318 37.8217C13.2464 41.9201 18.5738 44.5 24.5039 44.5C30.7595 44.5 36.3446 41.6291 40.0127 37.1331Z" stroke="#F2F2F3" stroke-linecap="round" stroke-linejoin="round"/>
<path d="M7.14272 14.5579C6.75238 15.2378 7.32746 16.0294 8.10585 15.936C19.6726 14.548 28.1979 14.1341 40.2882 14.8703C41.0749 14.9182 41.6044 14.0873 41.1676 13.4313C37.5829 8.04757 31.4578 4.5 24.5039 4.5C17.0757 4.5 10.5932 8.54797 7.14272 14.5579Z" stroke="#F2F2F3" stroke-linecap="round" stroke-linejoin="round"/>
</g>
<path d="M40.0127 37.1331C40.5133 36.5196 40.0621 35.6398 39.2704 35.6268C29.164 35.4604 20.7118 35.6472 10.2582 36.2832C9.46742 36.3314 9.05522 37.2311 9.58318 37.8217C13.2464 41.9201 18.5738 44.5 24.5039 44.5C30.7595 44.5 36.3446 41.6291 40.0127 37.1331Z" stroke="#F2F2F3" stroke-linecap="round" stroke-linejoin="round"/>
<path d="M7.14272 14.5579C6.75238 15.2378 7.32746 16.0294 8.10585 15.936C19.6726 14.548 28.1979 14.1341 40.2882 14.8703C41.0749 14.9182 41.6044 14.0873 41.1676 13.4313C37.5829 8.04757 31.4578 4.5 24.5039 4.5C17.0757 4.5 10.5932 8.54797 7.14272 14.5579Z" stroke="#F2F2F3" stroke-linecap="round" stroke-linejoin="round"/>
<path d="M40.0127 37.1331C40.5133 36.5196 40.0621 35.6398 39.2704 35.6268C29.164 35.4604 20.7118 35.6472 10.2582 36.2832C9.46742 36.3314 9.05522 37.2311 9.58318 37.8217C13.2464 41.9201 18.5738 44.5 24.5039 44.5C30.7595 44.5 36.3446 41.6291 40.0127 37.1331Z" stroke="white" stroke-width="0.5" stroke-linecap="round" stroke-linejoin="round"/>
<path d="M7.14272 14.5579C6.75238 15.2378 7.32746 16.0294 8.10585 15.936C19.6726 14.548 28.1979 14.1341 40.2882 14.8703C41.0749 14.9182 41.6044 14.0873 41.1676 13.4313C37.5829 8.04757 31.4578 4.5 24.5039 4.5C17.0757 4.5 10.5932 8.54797 7.14272 14.5579Z" stroke="white" stroke-width="0.5" stroke-linecap="round" stroke-linejoin="round"/>
<g filter="url(#filter2_f_91303_2872)">
<path d="M44.3593 26.9656C44.4878 25.9133 43.672 25.0115 42.6153 24.9264C29.7353 23.8883 19.6843 23.7251 6.38969 24.4245C5.33054 24.4802 4.48957 25.3596 4.58911 26.4156C4.73042 27.9145 5.0372 29.3654 5.49099 30.7496C5.7525 31.5473 6.53156 32.0408 7.37056 32.0118C19.8831 31.5783 29.5602 31.5468 41.6958 31.8747C42.5353 31.8973 43.3109 31.3976 43.5661 30.5975C43.9385 29.4298 44.2065 28.2155 44.3593 26.9656Z" stroke="white" stroke-linecap="round" stroke-linejoin="round"/>
</g>
<g filter="url(#filter3_f_91303_2872)">
<path d="M44.3593 26.9656C44.4878 25.9133 43.672 25.0115 42.6153 24.9264C29.7353 23.8883 19.6843 23.7251 6.38969 24.4245C5.33054 24.4802 4.48957 25.3596 4.58911 26.4156C4.73042 27.9145 5.0372 29.3654 5.49099 30.7496C5.7525 31.5473 6.53156 32.0408 7.37056 32.0118C19.8831 31.5783 29.5602 31.5468 41.6958 31.8747C42.5353 31.8973 43.3109 31.3976 43.5661 30.5975C43.9385 29.4298 44.2065 28.2155 44.3593 26.9656Z" stroke="white" stroke-linecap="round" stroke-linejoin="round"/>
</g>
<path d="M44.3593 26.9656C44.4878 25.9133 43.672 25.0115 42.6153 24.9264C29.7353 23.8883 19.6843 23.7251 6.38969 24.4245C5.33054 24.4802 4.48957 25.3596 4.58911 26.4156C4.73042 27.9145 5.0372 29.3654 5.49099 30.7496C5.7525 31.5473 6.53156 32.0408 7.37056 32.0118C19.8831 31.5783 29.5602 31.5468 41.6958 31.8747C42.5353 31.8973 43.3109 31.3976 43.5661 30.5975C43.9385 29.4298 44.2065 28.2155 44.3593 26.9656Z" stroke="white" stroke-linecap="round" stroke-linejoin="round"/>
<path d="M44.3593 26.9656C44.4878 25.9133 43.672 25.0115 42.6153 24.9264C29.7353 23.8883 19.6843 23.7251 6.38969 24.4245C5.33054 24.4802 4.48957 25.3596 4.58911 26.4156C4.73042 27.9145 5.0372 29.3654 5.49099 30.7496C5.7525 31.5473 6.53156 32.0408 7.37056 32.0118C19.8831 31.5783 29.5602 31.5468 41.6958 31.8747C42.5353 31.8973 43.3109 31.3976 43.5661 30.5975C43.9385 29.4298 44.2065 28.2155 44.3593 26.9656Z" stroke="white" stroke-width="0.5" stroke-linecap="round" stroke-linejoin="round"/>
<g filter="url(#filter4_f_91303_2872)">
<path d="M4.5 20C7.16667 18 9.83333 18 12.5 20C15.1667 22 17.8333 22 20.5 20C23.1667 18 25.8333 18 28.5 20C31.1667 22 33.8333 22 36.5 20C39.1667 18 41.8333 18 44.5 20" stroke="#F2F2F3" stroke-linecap="round" stroke-linejoin="round"/>
</g>
<g filter="url(#filter5_f_91303_2872)">
<path d="M4.5 20C7.16667 18 9.83333 18 12.5 20C15.1667 22 17.8333 22 20.5 20C23.1667 18 25.8333 18 28.5 20C31.1667 22 33.8333 22 36.5 20C39.1667 18 41.8333 18 44.5 20" stroke="#F2F2F3" stroke-linecap="round" stroke-linejoin="round"/>
</g>
<path d="M4.5 20C7.16667 18 9.83333 18 12.5 20C15.1667 22 17.8333 22 20.5 20C23.1667 18 25.8333 18 28.5 20C31.1667 22 33.8333 22 36.5 20C39.1667 18 41.8333 18 44.5 20" stroke="#F2F2F3" stroke-linecap="round" stroke-linejoin="round"/>
<path d="M4.5 20C7.16667 18 9.83333 18 12.5 20C15.1667 22 17.8333 22 20.5 20C23.1667 18 25.8333 18 28.5 20C31.1667 22 33.8333 22 36.5 20C39.1667 18 41.8333 18 44.5 20" stroke="white" stroke-width="0.5" stroke-linecap="round" stroke-linejoin="round"/>
<g filter="url(#filter6_f_91303_2872)">
<ellipse cx="1" cy="0.75" rx="1" ry="0.75" transform="matrix(0.885492 0.464655 0.464655 -0.885492 16.5 39.6807)" stroke="#F2F2F3"/>
<ellipse cx="33.2076" cy="10.8542" rx="1.5" ry="1" transform="rotate(15 33.2076 10.8542)" stroke="#F2F2F3"/>
<ellipse cx="1" cy="0.75" rx="1" ry="0.75" transform="matrix(0.965926 -0.258819 -0.258819 -0.965926 29.8882 40.4666)" stroke="#F2F2F3"/>
<ellipse cx="23" cy="11.5" rx="1.5" ry="1" transform="rotate(180 23 11.5)" stroke="#F2F2F3"/>
<ellipse cx="27.2076" cy="7.85415" rx="1.5" ry="1" transform="rotate(15 27.2076 7.85415)" stroke="#F2F2F3"/>
<ellipse cx="1" cy="0.75" rx="1" ry="0.75" transform="matrix(1 0 0 -1 23.5 42)" stroke="#F2F2F3"/>
<ellipse cx="16.2929" cy="10.0826" rx="1.5" ry="1" transform="rotate(-27.6879 16.2929 10.0826)" stroke="#F2F2F3"/>
</g>
<g filter="url(#filter7_f_91303_2872)">
<ellipse cx="1" cy="0.75" rx="1" ry="0.75" transform="matrix(0.885492 0.464655 0.464655 -0.885492 16.5 39.6807)" stroke="#F2F2F3"/>
<ellipse cx="33.2076" cy="10.8542" rx="1.5" ry="1" transform="rotate(15 33.2076 10.8542)" stroke="#F2F2F3"/>
<ellipse cx="1" cy="0.75" rx="1" ry="0.75" transform="matrix(0.965926 -0.258819 -0.258819 -0.965926 29.8882 40.4666)" stroke="#F2F2F3"/>
<ellipse cx="23" cy="11.5" rx="1.5" ry="1" transform="rotate(180 23 11.5)" stroke="#F2F2F3"/>
<ellipse cx="27.2076" cy="7.85415" rx="1.5" ry="1" transform="rotate(15 27.2076 7.85415)" stroke="#F2F2F3"/>
<ellipse cx="1" cy="0.75" rx="1" ry="0.75" transform="matrix(1 0 0 -1 23.5 42)" stroke="#F2F2F3"/>
<ellipse cx="16.2929" cy="10.0826" rx="1.5" ry="1" transform="rotate(-27.6879 16.2929 10.0826)" stroke="#F2F2F3"/>
</g>
<ellipse cx="1" cy="0.75" rx="1" ry="0.75" transform="matrix(0.885492 0.464655 0.464655 -0.885492 16.5 39.6807)" stroke="#F2F2F3"/>
<ellipse cx="33.2076" cy="10.8542" rx="1.5" ry="1" transform="rotate(15 33.2076 10.8542)" stroke="#F2F2F3"/>
<ellipse cx="1" cy="0.75" rx="1" ry="0.75" transform="matrix(0.965926 -0.258819 -0.258819 -0.965926 29.8882 40.4666)" stroke="#F2F2F3"/>
<ellipse cx="23" cy="11.5" rx="1.5" ry="1" transform="rotate(180 23 11.5)" stroke="#F2F2F3"/>
<ellipse cx="27.2076" cy="7.85415" rx="1.5" ry="1" transform="rotate(15 27.2076 7.85415)" stroke="#F2F2F3"/>
<ellipse cx="1" cy="0.75" rx="1" ry="0.75" transform="matrix(1 0 0 -1 23.5 42)" stroke="#F2F2F3"/>
<ellipse cx="16.2929" cy="10.0826" rx="1.5" ry="1" transform="rotate(-27.6879 16.2929 10.0826)" stroke="#F2F2F3"/>
<ellipse cx="1" cy="0.75" rx="1" ry="0.75" transform="matrix(0.885492 0.464655 0.464655 -0.885492 16.5 39.6807)" stroke="white" stroke-width="0.5"/>
<ellipse cx="33.2076" cy="10.8542" rx="1.5" ry="1" transform="rotate(15 33.2076 10.8542)" stroke="white" stroke-width="0.5"/>
<ellipse cx="1" cy="0.75" rx="1" ry="0.75" transform="matrix(0.965926 -0.258819 -0.258819 -0.965926 29.8882 40.4666)" stroke="white" stroke-width="0.5"/>
<ellipse cx="23" cy="11.5" rx="1.5" ry="1" transform="rotate(180 23 11.5)" stroke="white" stroke-width="0.5"/>
<ellipse cx="27.2076" cy="7.85415" rx="1.5" ry="1" transform="rotate(15 27.2076 7.85415)" stroke="white" stroke-width="0.5"/>
<ellipse cx="1" cy="0.75" rx="1" ry="0.75" transform="matrix(1 0 0 -1 23.5 42)" stroke="white" stroke-width="0.5"/>
<ellipse cx="16.2929" cy="10.0826" rx="1.5" ry="1" transform="rotate(-27.6879 16.2929 10.0826)" stroke="white" stroke-width="0.5"/>
<defs>
<filter id="filter0_f_91303_2872" x="2.51208" y="0" width="43.3186" height="49" filterUnits="userSpaceOnUse" color-interpolation-filters="sRGB">
<feFlood flood-opacity="0" result="BackgroundImageFix"/>
<feBlend mode="normal" in="SourceGraphic" in2="BackgroundImageFix" result="shape"/>
<feGaussianBlur stdDeviation="2" result="effect1_foregroundBlur_91303_2872"/>
</filter>
<filter id="filter1_f_91303_2872" x="2.51208" y="0" width="43.3186" height="49" filterUnits="userSpaceOnUse" color-interpolation-filters="sRGB">
<feFlood flood-opacity="0" result="BackgroundImageFix"/>
<feBlend mode="normal" in="SourceGraphic" in2="BackgroundImageFix" result="shape"/>
<feGaussianBlur stdDeviation="2" result="effect1_foregroundBlur_91303_2872"/>
</filter>
<filter id="filter2_f_91303_2872" x="0.0809326" y="19.5" width="48.792" height="17.0129" filterUnits="userSpaceOnUse" color-interpolation-filters="sRGB">
<feFlood flood-opacity="0" result="BackgroundImageFix"/>
<feBlend mode="normal" in="SourceGraphic" in2="BackgroundImageFix" result="shape"/>
<feGaussianBlur stdDeviation="2" result="effect1_foregroundBlur_91303_2872"/>
</filter>
<filter id="filter3_f_91303_2872" x="0.0809326" y="19.5" width="48.792" height="17.0129" filterUnits="userSpaceOnUse" color-interpolation-filters="sRGB">
<feFlood flood-opacity="0" result="BackgroundImageFix"/>
<feBlend mode="normal" in="SourceGraphic" in2="BackgroundImageFix" result="shape"/>
<feGaussianBlur stdDeviation="2" result="effect1_foregroundBlur_91303_2872"/>
</filter>
<filter id="filter4_f_91303_2872" x="0" y="14" width="49" height="12" filterUnits="userSpaceOnUse" color-interpolation-filters="sRGB">
<feFlood flood-opacity="0" result="BackgroundImageFix"/>
<feBlend mode="normal" in="SourceGraphic" in2="BackgroundImageFix" result="shape"/>
<feGaussianBlur stdDeviation="2" result="effect1_foregroundBlur_91303_2872"/>
</filter>
<filter id="filter5_f_91303_2872" x="0" y="14" width="49" height="12" filterUnits="userSpaceOnUse" color-interpolation-filters="sRGB">
<feFlood flood-opacity="0" result="BackgroundImageFix"/>
<feBlend mode="normal" in="SourceGraphic" in2="BackgroundImageFix" result="shape"/>
<feGaussianBlur stdDeviation="2" result="effect1_foregroundBlur_91303_2872"/>
</filter>
<filter id="filter6_f_91303_2872" x="10.3851" y="2.31274" width="28.795" height="44.1873" filterUnits="userSpaceOnUse" color-interpolation-filters="sRGB">
<feFlood flood-opacity="0" result="BackgroundImageFix"/>
<feBlend mode="normal" in="SourceGraphic" in2="BackgroundImageFix" result="shape"/>
<feGaussianBlur stdDeviation="2" result="effect1_foregroundBlur_91303_2872"/>
</filter>
<filter id="filter7_f_91303_2872" x="10.3851" y="2.31274" width="28.795" height="44.1873" filterUnits="userSpaceOnUse" color-interpolation-filters="sRGB">
<feFlood flood-opacity="0" result="BackgroundImageFix"/>
<feBlend mode="normal" in="SourceGraphic" in2="BackgroundImageFix" result="shape"/>
<feGaussianBlur stdDeviation="2" result="effect1_foregroundBlur_91303_2872"/>
</filter>
</defs>
</svg>
