<svg width="43" height="35" viewBox="0 0 43 35" fill="none" xmlns="http://www.w3.org/2000/svg">
<path d="M11.467 0C5.06937 0.423389 0.000244141 5.78631 0.000244141 12.3488H6.25799C6.25799 9.27927 8.53036 6.70366 11.5019 6.31555V0H11.467Z" fill="#242424"/>
<path d="M13.1096 0V6.31555C16.0462 6.73894 18.2836 9.27927 18.2836 12.3488H24.5414C24.5414 5.78631 19.4722 0.423389 13.1096 0Z" fill="#242424"/>
<path d="M29.8549 0C23.4573 0.423389 18.3882 5.78631 18.3882 12.3488H24.6459C24.6459 9.27927 26.9183 6.70366 29.8899 6.31555V0H29.8549Z" fill="#242424"/>
<path d="M31.4978 0V6.31555C34.4344 6.73894 36.6718 9.27927 36.6718 12.3488H42.9295C42.9295 5.78631 37.8954 0.423389 31.4978 0Z" fill="#242424"/>
<path d="M20.696 28.2966C17.6196 26.7794 7.02685 20.9931 6.53742 14.0425H0C0.489433 24.4155 16.7806 32.9891 20.6611 34.8944V28.2966H20.696Z" fill="#242424"/>
<path d="M36.4975 14.0425C36.043 20.9931 25.4153 26.7794 22.3389 28.2966V34.8944C26.2194 32.9891 42.5455 24.4155 42.9999 14.0425H36.4975V14.0425Z" fill="#242424"/>
</svg>
