<svg xmlns="http://www.w3.org/2000/svg" width="96" height="80" viewBox="0 0 96 80" fill="none">
  <path d="M46.0349 16.3629L47.7702 19.3914L49.5055 16.3629C56.9579 3.35706 67.9133 0.204109 76.8248 2.8793C85.8662 5.59345 93.2381 14.4072 93.2381 26.3438C93.2381 38.5192 85.3649 45.765 75.1103 53.0258C73.5183 54.1531 71.8595 55.2869 70.1736 56.4392C66.5402 58.9226 62.7817 61.4916 59.2987 64.2637C54.9796 67.7013 50.9254 71.5658 47.7527 76.2369C44.5204 71.5639 40.4184 67.6981 36.0605 64.2586C32.5803 61.5119 28.8333 58.9629 25.2115 56.4992C23.486 55.3255 21.7889 54.1711 20.1627 53.0238C9.87201 45.764 2 38.518 2 26.3438C2 14.4192 9.43556 5.59897 18.5605 2.88049C27.5581 0.199931 38.5871 3.36507 46.0349 16.3629Z" stroke="white" stroke-width="4"/>
</svg>