<svg xmlns="http://www.w3.org/2000/svg" width="80" height="80" viewBox="0 0 80 80" fill="none">
  <path d="M42 80H38V58H42V80Z" fill="white"/>
  <path d="M42 22H38V0H42V22Z" fill="white"/>
  <path d="M69.3987 66.7401L66.5703 69.5685L51.014 54.0122L53.8424 51.1838L69.3987 66.7401Z" fill="white"/>
  <path d="M28.3831 25.7279L25.5547 28.5563L9.99834 13L12.8268 10.1716L28.3831 25.7279Z" fill="white"/>
  <path d="M-1.74846e-07 42L0 38L22 38L22 42L-1.74846e-07 42Z" fill="white"/>
  <path d="M58 42L58 38L80 38L80 42L58 42Z" fill="white"/>
  <path d="M13.2581 69.397L10.4297 66.5685L25.986 51.0122L28.8145 53.8406L13.2581 69.397Z" fill="white"/>
  <path d="M54.2737 28.3848L51.4453 25.5563L67.0017 9.99999L69.8301 12.8284L54.2737 28.3848Z" fill="white"/>
</svg>