<svg xmlns="http://www.w3.org/2000/svg" width="80" height="80" viewBox="0 0 80 80" fill="none">
  <path d="M78.0952 13.9683C79.1467 13.9683 80 13.1162 80 12.0635V1.90476C80 0.852064 79.1467 0 78.0952 0H67.9365C66.8851 0 66.0317 0.852064 66.0317 1.90476V5.07937H13.9683V1.90476C13.9683 0.852064 13.1149 0 12.0635 0H1.90476C0.853333 0 0 0.852064 0 1.90476V12.0635C0 13.1162 0.853333 13.9683 1.90476 13.9683H5.07937V66.0317H1.90476C0.853333 66.0317 0 66.8838 0 67.9365V78.0952C0 79.1479 0.853333 80 1.90476 80H12.0635C13.1149 80 13.9683 79.1479 13.9683 78.0952V74.9206H66.0317V78.0952C66.0317 79.1479 66.8851 80 67.9365 80H78.0952C79.1467 80 80 79.1479 80 78.0952V67.9365C80 66.8838 79.1467 66.0317 78.0952 66.0317H74.9206V13.9683H78.0952ZM3.80952 10.1587V3.80952H10.1587V10.1587H3.80952ZM10.1587 76.1905H3.80952V69.8413H10.1587V76.1905ZM66.0317 67.9365V71.1111H13.9683V67.9365C13.9683 66.8838 13.1149 66.0317 12.0635 66.0317H8.88889V13.9683H12.0635C13.1149 13.9683 13.9683 13.1162 13.9683 12.0635V8.88889H66.0317V12.0635C66.0317 13.1162 66.8851 13.9683 67.9365 13.9683H71.1111V66.0317H67.9365C66.8851 66.0317 66.0317 66.8838 66.0317 67.9365ZM76.1905 69.8413V76.1905H69.8413V69.8413H76.1905ZM69.8413 10.1587V3.80952H76.1905V10.1587H69.8413Z" fill="white"/>
</svg>